<?xml version="1.0" encoding="UTF-8"?>
<svg width="40px" height="40px" viewBox="0 0 40 40" version="1.1" xmlns="http://www.w3.org/2000/svg" xmlns:xlink="http://www.w3.org/1999/xlink">
    <title>头像-无性别备份 6</title>
    <g id="页面-1" stroke="none" stroke-width="1" fill="none" fill-rule="evenodd">
        <g id="职位筛选" transform="translate(-1505.000000, -1771.000000)">
            <g id="编组-42" transform="translate(1489.000000, 1479.000000)">
                <g id="编组-40" transform="translate(0.000000, 239.000000)">
                    <g id="编组-39" transform="translate(16.000000, 52.000000)">
                        <g id="头像-无性别备份-6" transform="translate(0.000000, 1.000000)">
                            <rect id="Mask备份" fill="#F1F1F1" x="0" y="0" width="40" height="40" rx="20"></rect>
                            <path d="M10.8333346,28.8085788 C10.8314549,25.2549816 12.8923836,22.0234003 16.115272,20.5263875 C17.3117757,21.2960364 18.7026073,21.7092753 20.1252484,21.7178171 C21.5478896,21.7092753 22.9387212,21.2960364 24.1352249,20.5263875 C27.3581133,22.0234003 29.419042,25.2549816 29.4173362,28.8085788 C29.4832368,32.5872899 10.8333346,32.6513009 10.8333346,28.8085788 L10.8333346,28.8085788 Z M24.5378745,18.8682973 C23.9734978,19.4512118 23.2884801,19.9036617 22.5308214,20.1939435 C21.7957278,20.5243226 20.9264178,20.6585391 20.1252484,20.6585391 C19.3220142,20.6585391 18.4527042,20.5263875 17.7176107,20.1939435 C16.978737,19.8704699 16.3011703,19.4220185 15.7146873,18.8682973 C15.1284019,18.3122975 14.6715965,17.6341389 14.3766519,16.8818929 C14.042143,16.1529939 13.9079265,15.3580192 13.9079265,14.4949038 C13.9079265,13.6999291 14.042143,12.9049543 14.3766519,12.1099796 C14.7111607,11.3810806 15.1778212,10.6521817 15.7126224,10.1215103 C16.3155643,9.52682789 16.9825171,9.06223226 17.7176107,8.79792896 C18.5208449,8.46754986 19.3220142,8.33333333 20.1252484,8.33333333 C20.9264178,8.33333333 21.7977927,8.46548497 22.5308214,8.79792896 C23.2659149,9.12830807 24.0030733,9.59290369 24.5378745,10.1215103 C25.1366866,10.7203224 25.6074769,11.3810806 25.873845,12.1099796 C26.2083539,12.8388785 26.3425704,13.6338532 26.3425704,14.4949038 C26.3425704,15.2919434 26.2083539,16.0848533 25.873845,16.8818929 C25.605412,17.6107918 25.1387515,18.2736149 24.5378745,18.8682973 L24.5378745,18.8682973 Z" id="形状" fill="#CCCCCC" fill-rule="nonzero"></path>
                        </g>
                    </g>
                </g>
            </g>
        </g>
    </g>
</svg>