<?xml version="1.0" encoding="UTF-8"?>
<svg width="56px" height="56px" viewBox="0 0 56 56" version="1.1" xmlns="http://www.w3.org/2000/svg" xmlns:xlink="http://www.w3.org/1999/xlink">
    <title>头像-女</title>
    <defs>
        <rect id="path-1" x="0" y="0" width="56" height="56"></rect>
    </defs>
    <g id="PC端" stroke="none" stroke-width="1" fill="none" fill-rule="evenodd">
        <g id="图标Icon" transform="translate(-676.000000, -2133.000000)">
            <g id="头像-女" transform="translate(676.000000, 2133.000000)">
                <mask id="mask-2" fill="white">
                    <use xlink:href="#path-1"></use>
                </mask>
                <use id="Mask备份" fill="#F1F1F1" xlink:href="#path-1"></use>
                <g id="女" mask="url(#mask-2)" fill-rule="nonzero">
                    <g transform="translate(9.000000, 13.000000)" id="路径">
                        <path d="M19.1219936,0 C26.9032378,0 28.9014356,5.58612362 28.7427755,11.9244473 C28.5841154,18.262771 25.3419303,30.1526079 25.3419303,30.1526079 L19.1334908,30.1526079 L19.1219936,0 Z" fill="#370B00"></path>
                        <path d="M18.5011497,0 C10.7291032,0 8.7217078,5.58612362 8.88726615,11.9244473 C9.05282451,18.262771 12.2881114,30.1526079 12.2881114,30.1526079 L18.4965509,30.1526079 L18.5011497,0 Z" fill="#420E04"></path>
                        <path d="M14.2564166,26.7815518 C11.9891865,29.1996673 7.8778199,30.5010196 3.9780001,31.1309294 C0.0781803048,31.7608392 0,35.9948487 0,37.2177506 L0,43 L18.5011497,43 L18.5011497,26.7815518 L14.2564166,26.7815518 Z" fill="#EAE9E8"></path>
                        <path d="M18.5011497,21.5807577 L14.1736374,21.5807577 L14.1736374,27.196877 C14.1736374,28.0298347 15.5532906,30.6740717 18.5011497,30.6740717 L18.5011497,21.5807577 Z" fill="#EAC1A4"></path>
                        <path d="M18.5011497,3.92251556 C12.1202536,3.92251556 11.1751911,8.53723974 11.1751911,14.2502683 C11.1751911,20.0948165 16.693804,24.5872505 18.5011497,24.5872505 L18.5011497,3.92251556 Z" fill="#EBCFB7"></path>
                        <path d="M11.0372258,13.419618 C10.5888385,11.7352436 9.97489279,11.7352436 9.71505809,12.1621056 C9.45522339,12.5889676 10.351998,14.2387315 10.3749922,15.6000751 C10.3979864,16.9614187 10.7980859,17.1552372 11.294761,16.663769 C11.7914362,16.1723009 11.0372258,13.419618 11.0372258,13.419618 Z" fill="#EBCFB7"></path>
                        <polygon fill="#DDDCDB" points="14.247219 27.1368856 11.4603194 28.8327967 15.6199739 36.09868 18.5011497 30.6740717"></polygon>
                        <polygon fill="#F4F2F2" points="14.247219 26.7815518 11.4603194 28.8327967 15.6199739 35.7433462 18.5011497 30.6740717"></polygon>
                        <path d="M22.7642782,26.7815518 C25.0338077,29.1996673 29.1451744,30.5010196 33.0426947,31.1309294 C36.940215,31.7608392 37,35.9948487 37,37.2177506 L37,43 L18.5011497,43 L18.5011497,26.7815518 L22.7642782,26.7815518 Z" fill="#DDDCDB"></path>
                        <path d="M18.5011497,21.5807577 L22.8263626,21.5807577 L22.8263626,27.196877 C22.8263626,28.0298347 21.4467094,30.6740717 18.5011497,30.6740717 L18.5011497,21.5807577 Z" fill="#DDB597"></path>
                        <path d="M18.5011497,3.92251556 C24.8797464,3.92251556 25.8248089,8.53723974 25.8248089,14.2502683 C25.8248089,20.0948165 20.306196,24.5872505 18.5011497,24.5872505 L18.5011497,3.92251556 Z" fill="#EDC19C"></path>
                        <path d="M25.9673731,13.419618 C26.4272575,11.7352436 27.0320055,11.7352436 27.2918402,12.1621056 C27.5516748,12.5889676 26.6526008,14.2387315 26.6296066,15.6000751 C26.6066124,16.9614187 26.206513,17.1552372 25.7098378,16.663769 C25.2131626,16.1723009 25.967373,13.4196179 25.9673731,13.419618 Z" fill="#EBCFB7"></path>
                        <polygon fill="#DDDCDB" points="22.752781 27.1368856 25.5396806 28.8327967 21.3800261 36.09868 18.5011497 30.6740717"></polygon>
                        <polygon fill="#EFEEED" points="22.752781 26.7815518 25.5396806 28.8327967 21.3800261 35.7433462 18.5011497 30.6740717"></polygon>
                        <path d="M9.10801068,29.8549582 C7.43626653,30.4331409 5.71634854,30.860165 3.96880244,31.1309294 C0.0712820906,31.7608392 0,35.9948487 0,37.2177506 L0,43 L16.3373936,43 L9.10801068,29.848036 L9.10801068,29.8549582 Z" fill="#1D1D1D"></path>
                        <polygon fill="#303030" points="9.10801068 29.8549582 7.32595862 30.4110324 7.10061524 34.8896222 10.4393761 36.7216678 10.4393761 42.9976927 16.3373936 42.9976927 9.10801068 29.8549582"></polygon>
                        <path d="M27.8942887,29.8549582 C29.5652485,30.433138 31.2844029,30.8601635 33.0311976,31.1309294 C36.940215,31.7608392 37,35.9902339 37,37.2177506 L37,43 L20.6741036,43 L27.9034864,29.848036 L27.8942887,29.8549582 Z" fill="#1D1D1D"></path>
                        <polygon fill="#303030" points="27.8942887 29.8549582 29.6763408 30.4110324 29.8993848 34.8896222 26.5629234 36.7216678 26.5629234 42.9976927 20.6626064 42.9976927"></polygon>
                        <path d="M10.8072836,5.07619661 C9.67366851,9.80398152 11.1062085,14.2871861 11.267168,14.7163554 C11.267168,14.7163554 12.1248524,14.8524898 13.3366478,12.6581885 C14.9140514,9.79936683 16.8041763,8.32265508 18.4459636,7.55661088 L18.4459636,0 C14.334597,0 11.6005842,1.79974245 10.8072836,5.07619661 Z" fill="#471207"></path>
                        <path d="M25.6224598,14.7140481 C25.7742216,14.2871861 27.2067616,9.80398157 26.0823442,5.07388927 C25.2936424,1.80204979 22.5573302,0 18.4459636,0 L18.4459636,7.55661088 C19.5462153,7.03397245 20.7468113,6.75837793 21.9640793,6.74903414 C24.4014667,8.41494958 25.6155615,11.7513952 25.6224598,14.7140481 Z" fill="#370B00"></path>
                    </g>
                </g>
            </g>
        </g>
    </g>
</svg>