<?xml version="1.0" encoding="UTF-8"?>
<svg width="56px" height="56px" viewBox="0 0 56 56" version="1.1" xmlns="http://www.w3.org/2000/svg" xmlns:xlink="http://www.w3.org/1999/xlink">
    <title>头像-男</title>
    <defs>
        <rect id="path-1" x="0" y="0" width="56" height="56"></rect>
    </defs>
    <g id="PC端" stroke="none" stroke-width="1" fill="none" fill-rule="evenodd">
        <g id="图标Icon" transform="translate(-592.000000, -2133.000000)">
            <g id="头像-男" transform="translate(592.000000, 2133.000000)">
                <mask id="mask-2" fill="white">
                    <use xlink:href="#path-1"></use>
                </mask>
                <use id="Mask" fill="#F1F1F1" xlink:href="#path-1"></use>
                <g id="男" mask="url(#mask-2)">
                    <g transform="translate(7.671233, 12.041096)" id="Group-46">
                        <path d="M20.3287113,17.7016171 L14.8261307,17.7016171 L14.8261307,21.8854179 L14.8261307,24.6737429 C14.8261307,25.7091313 16.5713146,28.9930418 20.3287113,28.9930418 L20.3287113,17.7016171 Z" id="Fill-2" fill="#DDB597"></path>
                        <path d="M18.1163052,33.9077874 C18.1163052,33.9077874 16.9107652,32.9969521 15.601989,31.3099039 C14.2932128,29.6230745 12.4333964,25.9116559 12.4333964,25.9116559 C11.796773,26.003812 11.1961258,26.0999083 10.6276562,26.2001637 L19.059062,43.7260274 L20.3287336,43.7260274 L20.3287336,29.2137349 L18.1163052,33.9077874 Z" id="Fill-4" fill="#EFEEED"></path>
                        <path d="M12.4334858,31.7147341 L8.64391162,30.0953254 L10.2679829,26.2654829 C4.85701892,27.2599373 2.57978853,28.6396525 1.7219446,30.5000682 C0.757736068,32.592078 0,43.7258961 0,43.7258961 L18.0757257,43.7258961 L10.3430638,38.5075824 L12.4334858,31.7147341 Z" id="Fill-6" fill="#1D1D1D"></path>
                        <path d="M20.3287113,17.7016171 L25.8312918,17.7016171 L25.8312918,21.8854179 L25.8312918,24.6737429 C25.8312918,25.7091313 24.0861079,28.9930418 20.3287113,28.9930418 L20.3287113,17.7016171 Z" id="Fill-8" fill="#D1AC93"></path>
                        <path d="M22.5412291,33.9077874 C22.5412291,33.9077874 23.7467691,32.9969521 25.0553218,31.3099039 C26.364098,29.6230745 28.2241379,25.9116559 28.2241379,25.9116559 C28.8607613,26.003812 29.4614085,26.0999083 30.0296546,26.2001637 L21.5984722,43.7260274 L20.3288006,43.7260274 L20.3288006,29.2137349 L22.5412291,33.9077874 Z" id="Fill-10" fill="#DDDCDB"></path>
                        <path d="M28.2240485,31.7147341 L32.0133992,30.0953254 L30.3895513,26.2654829 C35.8005153,27.2599373 38.0777457,28.6396525 38.9353662,30.5000682 C39.8997982,32.592078 40.6575342,43.7258961 40.6575342,43.7258961 L22.5815851,43.7258961 L30.314247,38.5075824 L28.2240485,31.7147341 Z" id="Fill-12" fill="#0F0F0F"></path>
                        <path d="M20.3287113,3.71115593 C14.1291744,3.71115593 13.2107742,8.10203448 13.2107742,13.5180132 C13.2107742,19.5112264 15.9664218,23.3250894 20.3287113,23.3250894 L20.3287113,3.71115593 Z" id="Fill-14" fill="#EBCFB7"></path>
                        <path d="M20.3287113,3.71115593 C26.5282481,3.71115593 27.4466484,8.10203448 27.4466484,13.5180132 C27.4466484,19.5112264 24.6910007,23.3250894 20.3287113,23.3250894 L20.3287113,3.71115593 Z" id="Fill-16" fill="#EFC7A6"></path>
                        <path d="M13.0715617,12.7308772 C12.6353774,11.1337961 12.0383055,11.1337961 11.7858013,11.5387578 C11.5330737,11.9435005 12.4056656,13.5180351 12.4286815,14.8001217 C12.4516974,16.0824272 12.8398388,16.2752765 13.3231721,15.80771 C13.8062819,15.3399246 13.0715617,12.7308772 13.0715617,12.7308772" id="Fill-18" fill="#EBCFB7"></path>
                        <path d="M27.5859726,12.7308772 C28.0221568,11.1337961 28.6192287,11.1337961 28.8717329,11.5387578 C29.1242371,11.9435005 28.2516452,13.5180351 28.2288528,14.8001217 C28.2058369,16.0824272 27.817472,16.2752765 27.3343622,15.80771 C26.8510289,15.3399246 27.5859726,12.7308772 27.5859726,12.7308772" id="Fill-20" fill="#EBCFB7"></path>
                        <path d="M12.3795884,25.9199302 C11.7632994,26.0094596 11.1796348,26.1029291 10.6277008,26.2001199 C10.5054709,26.2217908 10.3870398,26.2436806 10.2679382,26.2655705 L8.64386693,30.0951941 L12.4334411,31.7148217 L10.3430191,38.50767 L18.075681,43.7259836 L19.0591067,43.7259836 L12.3795884,25.9199302 Z" id="Fill-22" fill="#3A3939"></path>
                        <path d="M32.0133992,30.0952379 L30.3895513,26.2656142 C30.2834102,26.2459134 30.1768221,26.2264315 30.0686699,26.2071684 L30.0686699,26.2069495 C30.0628601,26.205855 30.0566033,26.2051983 30.0510169,26.2041039 C30.0438664,26.2027905 29.1706041,26.0423381 28.2939899,25.9223819 L21.6763687,43.5636049 L21.6765921,43.5633861 L21.5986063,43.7260274 L22.5815851,43.7260274 L30.314247,38.5077137 L28.2240485,31.7146466 L32.0133992,30.0952379 Z" id="Fill-24" fill="#2D2D2D"></path>
                        <path d="M20.3287113,6.64640537 L20.3287113,0 C16.3335585,0 13.6766779,1.70762469 12.9146962,4.81335203 C11.8139567,9.29901349 13.0521211,13.3967874 13.2000483,13.8032813 C13.8612518,13.932869 14.0167765,11.6642083 14.0167765,9.24144327 C14.0167765,3.89113401 16.7697427,6.64640537 20.3287113,6.64640537" id="Fill-26" fill="#370B00"></path>
                        <path d="M20.3287113,6.64640537 L20.3287113,0 C24.3238641,0 26.9807446,1.70762469 27.7427263,4.81335203 C28.8434659,9.29901349 27.605078,13.3967874 27.4573742,13.8032813 C26.7961707,13.932869 26.640646,11.6642083 26.640646,9.24144327 C26.640646,3.89113401 23.8876798,6.64640537 20.3287113,6.64640537" id="Fill-28" fill="#230600"></path>
                        <polygon id="Fill-30" fill="#2A798C" points="20.3287113 33.2162443 18.6501169 33.2162443 19.425506 43.7259836 20.3287113 43.7259836"></polygon>
                        <polygon id="Fill-32" fill="#266C77" points="21.23214 43.7259179 22.0073056 33.2161786 20.3287113 33.2161786 20.3287113 43.7259179"></polygon>
                        <polygon id="Fill-34" fill="#3691AD" points="18.2760532 31.4385503 19.1256293 33.2162224 20.3287113 33.2162224 20.3287113 28.9930199"></polygon>
                        <polygon id="Fill-36" fill="#266C77" points="22.3812799 31.4385503 20.3286219 28.9930199 20.3286219 33.2162224 21.5317039 33.2162224"></polygon>
                        <path d="M23.9005061,25.9844833 L25.8313812,24.1571213 C26.8119019,24.7194707 28.2241379,25.9115902 28.2241379,25.9115902 C28.2241379,25.9115902 26.4673343,29.8497873 25.1587815,31.6071019 C23.8497818,33.3639787 22.4846949,34.4026505 22.4846949,34.4026505 L20.3288006,29.2136692 L20.4320369,29.1004989 L23.9005061,25.9844833 Z" id="Fill-38" fill="#CCCCCC"></path>
                        <path d="M23.7972922,25.9115902 L25.8314035,24.1571213 C26.8119243,24.6969242 28.2241602,25.9115902 28.2241602,25.9115902 C28.2241602,25.9115902 26.3641204,29.6230088 25.0553442,31.3098382 C23.7465679,32.9968864 22.5412514,33.9077218 22.5412514,33.9077218 L20.328823,29.2136692 L20.328823,28.9034905 L23.7972922,25.9115902 Z" id="Fill-40" fill="#F4F2F2"></path>
                        <path d="M16.7568047,25.9844833 L14.826153,24.1571213 C13.8456323,24.7194707 12.4333964,25.9115902 12.4333964,25.9115902 C12.4333964,25.9115902 14.1899765,29.8497873 15.4987527,31.6071019 C16.807529,33.3639787 18.1726158,34.4026505 18.1726158,34.4026505 L20.3287336,29.2136692 L20.2252739,29.1004989 L16.7568047,25.9844833 Z" id="Fill-42" fill="#CCCCCC"></path>
                        <path d="M16.8601303,25.9115902 L14.826019,24.1571213 C13.8454982,24.6969242 12.4334858,25.9115902 12.4334858,25.9115902 C12.4334858,25.9115902 14.2933021,29.6230088 15.6020784,31.3098382 C16.9108546,32.9968864 18.1163946,33.9077218 18.1163946,33.9077218 L20.3285995,29.2136692 L20.3285995,28.9034905 L16.8601303,25.9115902 Z" id="Fill-44" fill="#FFFFFF"></path>
                    </g>
                </g>
            </g>
        </g>
    </g>
</svg>